<svg width="14" height="14" viewBox="0 0 14 14" fill="none" xmlns="http://www.w3.org/2000/svg">
<path d="M6.99998 0.333252C3.31998 0.333252 0.333313 3.31992 0.333313 6.99992C0.333313 10.6799 3.31998 13.6666 6.99998 13.6666C10.68 13.6666 13.6666 10.6799 13.6666 6.99992C13.6666 3.31992 10.68 0.333252 6.99998 0.333252ZM6.33331 12.2866C3.69998 11.9599 1.66665 9.71992 1.66665 6.99992C1.66665 6.58659 1.71998 6.19325 1.80665 5.80659L4.99998 8.99992V9.66659C4.99998 10.3999 5.59998 10.9999 6.33331 10.9999V12.2866ZM10.9333 10.5933C10.76 10.0533 10.2666 9.66659 9.66665 9.66659H8.99998V7.66659C8.99998 7.29992 8.69998 6.99992 8.33331 6.99992H4.33331V5.66659H5.66665C6.03331 5.66659 6.33331 5.36659 6.33331 4.99992V3.66659H7.66665C8.39998 3.66659 8.99998 3.06659 8.99998 2.33325V2.05992C10.9533 2.85325 12.3333 4.76659 12.3333 6.99992C12.3333 8.38659 11.8 9.64659 10.9333 10.5933Z" fill="black"/>
</svg>
