<svg width="32" height="32" viewBox="0 0 32 32" fill="none" xmlns="http://www.w3.org/2000/svg">
<path d="M0 16C0 7.16344 7.16344 0 16 0C24.8366 0 32 7.16344 32 16C32 24.8366 24.8366 32 16 32C7.16344 32 0 24.8366 0 16Z" fill="#686E71"/>
<path d="M11.3056 13.252H7.67969V24.1464H11.3056V13.252Z" fill="#212121"/>
<path d="M11.544 9.8818C11.5205 8.8136 10.7566 8 9.5162 8C8.27578 8 7.46484 8.8136 7.46484 9.8818C7.46484 10.9279 8.25182 11.7649 9.46913 11.7649H9.4923C10.7566 11.7649 11.544 10.9279 11.544 9.8818Z" fill="#212121"/>
<path d="M24.382 17.8998C24.382 14.5535 22.5932 12.9961 20.2072 12.9961C18.2821 12.9961 17.4201 14.0535 16.9389 14.7953V13.2522H13.3125C13.3603 14.2745 13.3125 24.1467 13.3125 24.1467H16.9389V18.0623C16.9389 17.7367 16.9624 17.4119 17.0583 17.1788C17.3203 16.5283 17.917 15.8548 18.9188 15.8548C20.2314 15.8548 20.7561 16.8538 20.7561 18.3178V24.1464H24.3819L24.382 17.8998Z" fill="#212121"/>
</svg>
