<svg width="32" height="32" viewBox="0 0 32 32" fill="none" xmlns="http://www.w3.org/2000/svg">
<path d="M0 16C0 7.16344 7.16344 0 16 0C24.8366 0 32 7.16344 32 16C32 24.8366 24.8366 32 16 32C7.16344 32 0 24.8366 0 16Z" fill="#686E71"/>
<path fill-rule="evenodd" clip-rule="evenodd" d="M22.6659 10.5C23.4003 10.7015 23.9786 11.2953 24.1749 12.0493C24.5315 13.4158 24.5315 16.2671 24.5315 16.2671C24.5315 16.2671 24.5315 19.1183 24.1749 20.485C23.9786 21.239 23.4003 21.8327 22.6659 22.0343C21.3351 22.4005 15.9982 22.4005 15.9982 22.4005C15.9982 22.4005 10.6613 22.4005 9.33035 22.0343C8.596 21.8327 8.01767 21.239 7.8214 20.485C7.46484 19.1183 7.46484 16.2671 7.46484 16.2671C7.46484 16.2671 7.46484 13.4158 7.8214 12.0493C8.01767 11.2953 8.596 10.7015 9.33035 10.5C10.6613 10.1338 15.9982 10.1338 15.9982 10.1338C15.9982 10.1338 21.3351 10.1338 22.6659 10.5ZM14.3983 13.8671V19.2005L18.6649 16.5339L14.3983 13.8671Z" fill="#212121"/>
</svg>
